<svg width="46" height="46" viewBox="0 0 46 46" fill="none" xmlns="http://www.w3.org/2000/svg">
<path d="M23.8117 9.5605V7.12523C23.8117 6.67691 23.4483 6.31348 22.9999 6.31348C22.5516 6.31348 22.1882 6.67691 22.1882 7.12523V9.5605H19.753C19.3046 9.5605 18.9412 9.92396 18.9412 10.3723C18.9412 10.8206 19.3046 11.1841 19.753 11.1841H22.1882V13.6194C22.1882 14.0677 22.5516 14.4311 22.9999 14.4311C23.4483 14.4311 23.8117 14.0677 23.8117 13.6194V11.1841H26.247C26.6954 11.1841 27.0588 10.8206 27.0588 10.3723C27.0588 9.92396 26.6954 9.5605 26.247 9.5605H23.8117Z" fill="#4D9FFF"/>
<path d="M36.08 16.9274L38.7689 2.88436C38.8182 2.626 38.7478 2.34235 38.5765 2.1401C38.4051 1.93803 38.1508 1.80371 37.8824 1.80371H9.01963C8.75121 1.80371 8.4969 1.93803 8.32553 2.1401C8.15417 2.34235 8.08374 2.61745 8.1331 2.87572L10.822 16.9234C9.22405 19.7257 8.30843 22.9612 8.14659 26.3573C8.11909 26.4678 8.11309 26.5836 8.13028 26.6972C8.12217 26.9478 8.11768 27.1995 8.11768 27.4516C8.11768 37.679 14.9962 45.9998 23.451 45.9998C31.9058 45.9998 38.7843 37.6794 38.7843 27.452C38.7843 23.6551 37.8492 20.0284 36.08 16.9274ZM10.1064 3.57017H36.7957L34.428 15.9355H12.474L10.1064 3.57017ZM23.451 44.2336C15.9909 44.2336 9.92159 36.7055 9.92159 27.4521C9.92159 27.3198 9.92529 27.1883 9.92776 27.0563C11.5606 26.0985 17.8032 22.7663 22.7781 24.6059C23.1744 25.4277 24.3043 27.5495 26.1957 29.4017C28.3563 31.5175 30.7951 32.589 33.3872 32.589C34.3867 32.589 35.4091 32.4274 36.4469 32.1071C34.8156 39.1024 29.6088 44.2336 23.451 44.2336ZM36.6455 30.1652C33.2858 31.4809 30.2104 30.815 27.5054 28.1859C25.3899 26.1302 24.2939 23.6039 24.2836 23.5796C24.1933 23.3674 24.022 23.198 23.8062 23.1074C18.7662 20.9925 12.8369 23.4689 10.0736 24.9222C10.3862 22.3311 11.1843 19.91 12.4266 17.702H34.4751C36.1136 20.5725 36.9803 23.9181 36.9803 27.4348C36.9803 28.3426 36.92 29.2504 36.8075 30.1195C36.7532 30.13 36.6988 30.1443 36.6455 30.1652Z" fill="#4D9FFF"/>
</svg>
