<svg width="46" height="46" viewBox="0 0 46 46" fill="none" xmlns="http://www.w3.org/2000/svg">
<path fill-rule="evenodd" clip-rule="evenodd" d="M21.7164 31.1525C20.0769 29.3575 17.5618 26.835 16.1753 27.1757C10.9964 28.4484 5.75 31.0435 5.75 34.9474V41.2085H40.25V34.9474C40.25 31.0435 35.0036 28.4484 29.8247 27.1757C28.4866 26.8469 25.9648 29.3872 24.3072 31.1715C24.0838 31.412 23.8761 31.6387 23.689 31.8428C23.4062 32.1516 23.1708 32.4087 23 32.5832C22.8815 32.454 22.7308 32.2843 22.5537 32.0852C22.3169 31.8186 22.0329 31.4992 21.7164 31.1525ZM29.5713 29.0879C29.4855 29.1232 29.3539 29.1881 29.1745 29.3001C28.6968 29.598 28.1119 30.0803 27.4748 30.68C26.5867 31.5163 25.8237 32.3507 25.2007 33.0321C24.8881 33.374 24.6108 33.6775 24.3704 33.9233L22.9548 35.371L21.5868 33.8781C21.4446 33.723 21.275 33.5321 21.0826 33.3158C20.4367 32.5895 19.535 31.5753 18.5575 30.6549C17.9265 30.0607 17.3455 29.5861 16.8696 29.2951C16.6593 29.1664 16.525 29.1075 16.4551 29.0812C14.0448 29.6884 11.7436 30.5717 10.078 31.6734C8.33043 32.8294 7.66667 33.9495 7.66667 34.9474V39.2919H38.3333V34.9474C38.3333 33.9495 37.6696 32.8294 35.922 31.6734C34.2625 30.5757 31.9721 29.6948 29.5713 29.0879Z" fill="#4D9FFF"/>
<path d="M28.75 33.542H34.5V35.4587H28.75V33.542Z" fill="#4D9FFF"/>
<path d="M30.6666 37.375V31.625H32.5833V37.375H30.6666Z" fill="#4D9FFF"/>
<path fill-rule="evenodd" clip-rule="evenodd" d="M23 4.79167C20.8539 4.79167 18.1805 5.49936 16.4211 6.05728C15.9805 6.19699 15.7219 6.6869 15.8972 7.18348L17.8367 12.6788C21.2744 11.5863 24.7255 11.5863 28.1633 12.6788L30.1027 7.18348C30.278 6.6869 30.0195 6.19699 29.5788 6.05728C27.8194 5.49936 25.1461 4.79167 23 4.79167ZM15.8417 4.23027C17.6241 3.66509 20.538 2.875 23 2.875C25.4619 2.875 28.3758 3.66509 30.1581 4.23027C31.6918 4.71654 32.4242 6.36502 31.9102 7.82138L29.6537 14.2148C29.568 14.4575 29.3883 14.6556 29.155 14.7644C28.9217 14.8731 28.6545 14.8835 28.4135 14.7931C24.7971 13.437 21.2028 13.437 17.5864 14.7931C17.3454 14.8835 17.0782 14.8731 16.8449 14.7644C16.6116 14.6556 16.4319 14.4575 16.3463 14.2148L14.0898 7.82138C13.5757 6.36501 14.3082 4.71654 15.8417 4.23027Z" fill="#4D9FFF"/>
<path d="M20.125 7.66699H25.875V9.58366H20.125V7.66699Z" fill="#4D9FFF"/>
<path d="M22.0416 11.5V5.75H23.9583V11.5H22.0416Z" fill="#4D9FFF"/>
<path fill-rule="evenodd" clip-rule="evenodd" d="M17.9685 13.7713C16.9243 14.9544 16.2917 16.5063 16.2917 18.2083C16.2917 21.9132 19.2951 24.9166 23 24.9166C26.7049 24.9166 29.7083 21.9132 29.7083 18.2083C29.7083 16.5063 29.0757 14.9544 28.0315 13.7713L29.4685 12.5029C30.8099 14.0228 31.625 16.0215 31.625 18.2083C31.625 22.9718 27.7635 26.8333 23 26.8333C18.2365 26.8333 14.375 22.9718 14.375 18.2083C14.375 16.0215 15.1901 14.0228 16.5315 12.5029L17.9685 13.7713Z" fill="#4D9FFF"/>
</svg>
