<svg width="50" height="50" viewBox="0 0 50 50" fill="none" xmlns="http://www.w3.org/2000/svg">
<path fill-rule="evenodd" clip-rule="evenodd" d="M34.458 12.2633C34.4916 12.3037 34.523 12.3474 34.5511 12.3911L34.5522 12.3934L34.5555 12.399L34.5656 12.4158L34.6015 12.4753C34.8071 12.8178 35.0057 13.1644 35.1971 13.515C35.5785 14.2127 36.0844 15.1975 36.5913 16.3618C37.5952 18.6612 38.6496 21.7648 38.6496 24.7214C38.6496 28.0673 36.3894 29.9225 34.4019 30.8804C33.4108 31.3509 32.3648 31.6957 31.2882 31.9067C29.6305 33.4453 27.4514 34.2986 25.1898 34.2947C23.841 34.2962 22.5093 33.9931 21.2941 33.4079C20.0788 32.8227 19.0115 31.9706 18.1716 30.9152L18.12 30.9107C17.8762 30.8885 17.6333 30.8563 17.3921 30.8142C16.629 30.6852 15.8861 30.4566 15.1824 30.1345C14.3636 29.7532 13.4932 29.1677 12.827 28.2692C12.1506 27.3573 11.73 26.1841 11.73 24.7203C11.73 21.9532 13.0782 18.8092 14.3165 16.474C15.0617 15.0739 15.8878 13.7185 16.7909 12.4147L16.8268 12.3642L16.8402 12.3429C16.9817 12.1286 17.1364 11.9233 17.3035 11.7283C17.741 11.2233 18.2381 10.7732 18.784 10.3879C20.1457 9.4199 22.2432 8.49902 25.2515 8.49902C28.2519 8.49902 30.5367 9.41541 32.0756 10.3419C32.8439 10.8051 33.426 11.2695 33.822 11.6251C34.0382 11.8199 34.2441 12.0258 34.4389 12.242L34.4501 12.2554L34.4557 12.261L34.458 12.2633ZM18.7257 13.5599C18.709 13.5884 18.691 13.616 18.6719 13.6429L18.6696 13.6452L18.6607 13.6564L18.6236 13.7102C18.3889 14.0465 18.1604 14.3872 17.9383 14.732C17.4896 15.4275 16.8929 16.4033 16.2985 17.5249C15.0803 19.8221 13.9733 22.5454 13.9733 24.7214C13.9733 25.7298 14.2537 26.4286 14.6283 26.9345C15.0142 27.4527 15.547 27.8318 16.1302 28.1032C16.4073 28.2322 16.6877 28.3343 16.9546 28.4139C16.7415 27.4512 16.5809 26.4777 16.4734 25.4976C16.3467 24.293 16.3097 22.9571 16.5362 21.776C16.7595 20.6184 17.2855 19.3745 18.4902 18.7273C20.093 17.867 22.8051 16.7162 25.1965 15.9232C26.3888 15.5273 27.552 15.2031 28.4818 15.0551C28.9383 14.9833 29.4072 14.9429 29.8199 14.9844C30.143 15.018 30.8126 15.1403 31.1827 15.7471C34.1888 20.0868 34.2336 24.063 33.472 26.967C33.2522 27.806 32.9673 28.5507 32.6734 29.1834C32.9291 29.0863 33.1806 28.9785 33.4272 28.8603C35.0536 28.0752 36.4063 26.8257 36.4063 24.7214C36.4063 22.2291 35.4977 19.4654 34.5354 17.258C34.0223 16.0855 33.4434 14.9429 32.8013 13.8358L32.6958 13.6575L32.6689 13.6294L32.6566 13.616C32.5492 13.5045 32.4377 13.3972 32.3223 13.2941C31.8876 12.9075 31.4174 12.5628 30.918 12.2644C29.6652 11.5084 27.7752 10.7423 25.2515 10.7423C22.7345 10.7423 21.0879 11.5039 20.0851 12.2173C19.688 12.4968 19.326 12.8233 19.0072 13.1898C18.9083 13.3047 18.8162 13.4253 18.7313 13.5509L18.7257 13.5599ZM19.2921 28.5698C19.0238 27.4821 18.8275 26.3779 18.7044 25.2643C18.5866 24.1505 18.572 23.0659 18.738 22.1988C18.9097 21.3105 19.2204 20.8809 19.5501 20.7037C21.0161 19.9163 23.606 18.8137 25.902 18.0521C27.0528 17.6708 28.0803 17.3903 28.8318 17.2714C29.1155 17.2266 29.3242 17.2098 29.4655 17.2109C31.9309 20.8764 31.9051 24.0944 31.3005 26.3983C31.0391 27.3894 30.6417 28.3395 30.1194 29.2215C29.9274 29.5459 29.7158 29.8583 29.4857 30.157L29.4778 30.167L29.4543 30.1962L29.4498 30.2007L29.4487 30.2018C29.3196 30.3526 29.2329 30.5349 29.1974 30.7301C28.4263 31.3024 27.5415 31.703 26.6027 31.9049C25.6638 32.1068 24.6927 32.1054 23.7544 31.9007C22.8162 31.6961 21.9326 31.2929 21.1631 30.7184C20.3936 30.1439 19.7549 29.4113 19.2921 28.5698ZM29.6539 17.2255C29.644 17.2242 29.6342 17.222 29.6248 17.2187C29.6348 17.2195 29.6446 17.2218 29.6539 17.2255Z" fill="#7F8DAA"/>
<path fill-rule="evenodd" clip-rule="evenodd" d="M18.3633 35.2556C18.1255 34.7822 17.8328 34.1979 17.3381 34.3111C11.2767 35.6908 5 39.6749 5 43.9091V49.9996H45.3794V43.9091C45.3794 40.5733 41.485 37.3946 36.8694 35.5192L36.8537 35.4889L36.8481 35.4777L36.8111 35.4956C35.5851 35.0021 34.3087 34.5983 33.0412 34.3111C32.477 34.1821 31.8938 34.9583 31.6392 35.444H18.4598C18.427 35.3815 18.3949 35.3187 18.3633 35.2556ZM33.4933 36.7373C33.9834 36.8719 34.4713 37.0255 34.9525 37.1938C34.966 37.5774 34.9368 38.0294 34.874 38.4915C34.8101 38.97 34.7081 39.4426 34.5689 39.9048H33.0412C32.833 39.9049 32.6289 39.963 32.4518 40.0725C32.2747 40.1821 32.1316 40.3388 32.0385 40.5251L30.9168 42.7684C30.8388 42.924 30.7981 43.0957 30.7979 43.2697V45.513C30.7979 45.8105 30.9161 46.0958 31.1265 46.3062C31.3368 46.5165 31.6221 46.6347 31.9196 46.6347H34.1629V44.3914H33.0412V43.5345L33.7344 42.1481H36.8347L37.5278 43.5345V44.3914H36.4062V46.6347H38.6495C38.947 46.6347 39.2323 46.5165 39.4426 46.3062C39.653 46.0958 39.7711 45.8105 39.7711 45.513V43.2697C39.771 43.0957 39.7303 42.924 39.6522 42.7684L38.5306 40.5251C38.4375 40.3388 38.2944 40.1821 38.1173 40.0725C37.9402 39.963 37.7361 39.9049 37.5278 39.9048H36.893C37.0315 39.3116 37.1245 38.7086 37.1711 38.1012C38.2648 38.6171 39.281 39.2094 40.1615 39.851C42.3173 41.4258 43.1361 42.8974 43.1361 43.9091V47.7563H7.2433V43.9091C7.2433 42.8962 8.0621 41.4246 10.2179 39.8521C11.3014 39.0613 12.5947 38.3457 13.981 37.7535C14.0196 38.6473 14.163 39.5335 14.4084 40.3938L14.4174 40.4252C13.7468 40.8495 13.2477 41.497 13.0083 42.2535C12.7688 43.01 12.8044 43.8268 13.1088 44.5596C13.4131 45.2923 13.9666 45.894 14.6715 46.2583C15.3765 46.6226 16.1874 46.726 16.9612 46.5504C17.735 46.3747 18.4219 45.9313 18.9004 45.2984C19.379 44.6655 19.6185 43.8838 19.5766 43.0914C19.5348 42.299 19.2142 41.5469 18.6716 40.9679C18.129 40.389 17.3993 40.0204 16.6113 39.9272C16.468 39.4579 16.3629 38.9778 16.2973 38.4915C16.2348 38.0566 16.2089 37.6173 16.2199 37.1781C16.2231 37.0942 16.2287 37.0104 16.2367 36.9268C16.3713 36.8853 16.5059 36.8449 16.6405 36.8068L17.106 37.6884H32.993L33.4933 36.7373ZM16.2165 44.4082C16.8199 44.4082 17.3381 43.9147 17.3381 43.2697C17.3381 42.6259 16.8199 42.1313 16.2165 42.1313C15.613 42.1313 15.0948 42.6248 15.0948 43.2697C15.0948 43.9136 15.613 44.4082 16.2165 44.4082Z" fill="#7F8DAA"/>
<path fill-rule="evenodd" clip-rule="evenodd" d="M25.8702 1.92283C23.7172 1.92283 21.0352 2.63279 19.2702 3.19251C18.8281 3.33266 18.5687 3.82415 18.7446 4.32232L20.6903 9.83526C24.1391 8.73925 27.6013 8.73925 31.0501 9.83526L32.9958 4.32232C33.1717 3.82415 32.9123 3.33266 32.4702 3.19251C30.7051 2.63279 28.0232 1.92283 25.8702 1.92283ZM18.6889 1.35962C20.4771 0.792628 23.4003 0 25.8702 0C28.3401 0 31.2633 0.792628 33.0514 1.35962C34.5899 1.84746 35.3247 3.50124 34.809 4.96228L32.5453 11.3762C32.4593 11.6197 32.2791 11.8185 32.045 11.9276C31.811 12.0367 31.5429 12.0471 31.3011 11.9564C27.6731 10.5959 24.0673 10.5959 20.4393 11.9564C20.1975 12.0471 19.9294 12.0367 19.6953 11.9276C19.4613 11.8185 19.281 11.6197 19.1951 11.3762L16.9314 4.96228C16.4157 3.50123 17.1505 1.84746 18.6889 1.35962Z" fill="#7F8DAA"/>
<path d="M22.986 4.80664H28.7544V6.72947H22.986V4.80664Z" fill="#7F8DAA"/>
<path d="M24.9087 8.65227V2.88379H26.8315V8.65227H24.9087Z" fill="#7F8DAA"/>
</svg>
