<svg width="50" height="50" viewBox="0 0 50 50" fill="none" xmlns="http://www.w3.org/2000/svg">
<g clip-path="url(#clip0_588_13912)">
<path d="M43.9062 5H5.26042C4.52831 5 3.82619 5.29266 3.30851 5.81359C2.79083 6.33453 2.5 7.04106 2.5 7.77778V35.5555C2.5 36.2923 2.79083 36.9988 3.30851 37.5197C3.82619 38.0407 4.52831 38.3333 5.26042 38.3333H25.9635L26.7503 37.3611L28.0338 35.7778L27.9096 35.5555H5.26042V7.77778H43.9062V19.6667C44.9548 20.3497 45.8869 21.1986 46.6667 22.1805V7.77778C46.6667 7.04106 46.3758 6.33453 45.8582 5.81359C45.3405 5.29266 44.6384 5 43.9062 5Z" fill="#7F8DAA"/>
<path d="M33.3333 13.333H10V15.833H33.3333V13.333Z" fill="#7F8DAA"/>
<path d="M25 19.167H10V21.667H25V19.167Z" fill="#7F8DAA"/>
<path d="M24.1667 28.333H10V30.833H24.1667V28.333Z" fill="#7F8DAA"/>
<path d="M37.9235 20.8333C36.1754 20.8193 34.4638 21.3362 33.0124 22.3162C31.561 23.2963 30.4372 24.6941 29.788 26.3268C29.1388 27.9595 28.9943 29.7513 29.3734 31.468C29.7525 33.1846 30.6376 34.7463 31.913 35.9489L29.2629 39.2057L30.4923 44.1663L35.492 38.0376C37.0745 38.5084 38.7587 38.5084 40.3413 38.0376L45.3409 44.1663L46.5703 39.2057L43.9202 35.9489C45.1956 34.7463 46.0807 33.1846 46.4598 31.468C46.839 29.7513 46.6945 27.9595 46.0452 26.3268C45.396 24.6941 44.2723 23.2963 42.8208 22.3162C41.3694 21.3362 39.6578 20.8193 37.9098 20.8333H37.9235ZM37.9235 35.5092C36.7626 35.4929 35.6325 35.1318 34.6752 34.4712C33.7178 33.8106 32.976 32.8801 32.5429 31.7965C32.1098 30.713 32.0049 29.5248 32.2412 28.3815C32.4775 27.2381 33.0446 26.1905 33.8712 25.3704C34.6977 24.5504 35.7469 23.9944 36.8866 23.7725C38.0264 23.5506 39.206 23.6726 40.277 24.1232C41.348 24.5738 42.2627 25.3328 42.9061 26.3049C43.5495 27.277 43.8928 28.4188 43.8929 29.5866C43.8785 31.1672 43.2423 32.6777 42.1236 33.7876C41.0049 34.8975 39.4947 35.5165 37.9235 35.5092Z" fill="#7F8DAA"/>
</g>
<defs>
<clipPath id="clip0_588_13912">
<rect width="50" height="50" fill="white"/>
</clipPath>
</defs>
</svg>
