<svg width="50" height="50" viewBox="0 0 50 50" fill="none" xmlns="http://www.w3.org/2000/svg">
<path d="M26.7476 21.3672H24.3857V24.3196H21.4333V26.6815H24.3857V29.6339H26.7476V26.6815H29.7V24.3196H26.7476V21.3672Z" fill="#7F8DAA"/>
<path d="M25.5 15.0709L24.5707 15.96C24.6911 16.0841 24.8354 16.1828 24.9951 16.2502C25.1548 16.3177 25.3265 16.3524 25.5 16.3524C25.6735 16.3524 25.8452 16.3177 26.0049 16.2502C26.1646 16.1828 26.3089 16.0841 26.4293 15.96L25.5 15.0709ZM16.8971 33.7417C16.6323 33.5254 16.292 33.4225 15.9508 33.4555C15.6097 33.4885 15.2958 33.6548 15.078 33.9178C14.8603 34.1809 14.7567 34.519 14.7899 34.8579C14.8232 35.1969 14.9906 35.5088 15.2553 35.7251L16.8971 33.7417ZM8.87926 28.597C8.96061 28.7447 9.07047 28.8751 9.20254 28.9807C9.33461 29.0862 9.48632 29.1649 9.649 29.2122C9.81168 29.2595 9.98214 29.2746 10.1507 29.2564C10.3192 29.2383 10.4825 29.1873 10.6312 29.1065C10.7799 29.0257 10.9111 28.9165 11.0173 28.7853C11.1236 28.6541 11.2028 28.5034 11.2504 28.3418C11.298 28.1801 11.3131 28.0108 11.2949 27.8433C11.2766 27.6759 11.2254 27.5137 11.144 27.366L8.87926 28.597ZM9.5814 21.2894C9.5814 17.6133 11.6723 14.5289 14.5273 13.2312C17.3015 11.9711 21.029 12.3045 24.5707 15.96L26.4293 14.1835C22.2302 9.84579 17.3497 9.12939 13.4535 10.899C9.64335 12.631 7 16.6524 7 21.2894H9.5814ZM19.4716 39.0079C20.3544 39.6986 21.3009 40.4338 22.2595 40.9912C23.218 41.5469 24.3126 42 25.5 42V39.4353C24.9665 39.4353 24.3401 39.2301 23.5622 38.7771C22.7826 38.3257 21.9755 37.7033 21.0703 36.9937L19.4716 39.0079ZM31.5284 39.0079C33.9825 37.0844 37.1214 34.8822 39.5824 32.1277C42.0898 29.3237 44 25.8477 44 21.2894H41.4186C41.4186 25.0458 39.8698 27.9421 37.6532 30.4248C35.3902 32.9552 32.5386 34.9506 29.9297 36.9937L31.5284 39.0079ZM44 21.2894C44 16.6524 41.3584 12.631 37.5465 10.899C33.6503 9.12939 28.7732 9.84579 24.5707 14.1818L26.4293 15.96C29.971 12.3062 33.6985 11.9711 36.4727 13.2312C39.3277 14.5289 41.4186 17.6116 41.4186 21.2894H44ZM29.9297 36.9937C29.0245 37.7033 28.2174 38.3257 27.4378 38.7771C26.6599 39.2284 26.0335 39.4353 25.5 39.4353V42C26.6874 42 27.782 41.5469 28.7405 40.9912C29.7008 40.4338 30.6456 39.6986 31.5284 39.0079L29.9297 36.9937ZM21.0703 36.9937C19.7005 35.9217 18.3082 34.8958 16.8971 33.7417L15.2553 35.7251C16.6837 36.8929 18.1947 38.0077 19.4716 39.0079L21.072 36.9937H21.0703ZM11.144 27.3677C10.1073 25.5081 9.56923 23.4151 9.5814 21.2894H7C7 24.09 7.72279 26.4974 8.87926 28.597L11.144 27.366V27.3677Z" fill="#7F8DAA"/>
</svg>
