<svg width="50" height="50" viewBox="0 0 50 50" fill="none" xmlns="http://www.w3.org/2000/svg">
<path d="M25.8822 10.3917V7.74465C25.8822 7.25734 25.4872 6.8623 24.9999 6.8623C24.5126 6.8623 24.1175 7.25734 24.1175 7.74465V10.3917H21.4705C20.9832 10.3917 20.5881 10.7867 20.5881 11.2741C20.5881 11.7614 20.9832 12.1565 21.4705 12.1565H24.1175V14.8035C24.1175 15.2908 24.5126 15.6858 24.9999 15.6858C25.4872 15.6858 25.8822 15.2908 25.8822 14.8035V12.1565H28.5293C29.0166 12.1565 29.4117 11.7614 29.4117 11.2741C29.4117 10.7867 29.0166 10.3917 28.5293 10.3917H25.8822Z" fill="#7F8DAA"/>
<path d="M39.2173 18.3997L42.14 3.13555C42.1936 2.85473 42.1171 2.54642 41.9309 2.32658C41.7446 2.10693 41.4682 1.96094 41.1764 1.96094H9.80387C9.51211 1.96094 9.23569 2.10693 9.04942 2.32658C8.86315 2.54642 8.7866 2.84544 8.84025 3.12617L11.763 18.3954C10.0261 21.4413 9.03083 24.9582 8.85491 28.6496C8.82502 28.7697 8.8185 28.8955 8.83719 29.0191C8.82837 29.2915 8.82349 29.5651 8.82349 29.8391C8.82349 40.9558 16.3002 50.0002 25.4902 50.0002C34.6801 50.0002 42.1568 40.9563 42.1568 29.8395C42.1568 25.7125 41.1403 21.7704 39.2173 18.3997ZM10.9851 3.881H39.9952L37.4217 17.3216H13.5586L10.9851 3.881ZM25.4902 48.0804C17.3814 48.0804 10.7843 39.8977 10.7843 29.8396C10.7843 29.6958 10.7883 29.5529 10.791 29.4094C12.5658 28.3683 19.3512 24.7464 24.7587 26.7459C25.1895 27.6392 26.4176 29.9455 28.4735 31.9587C30.822 34.2586 33.4728 35.4233 36.2903 35.4232C37.3768 35.4232 38.488 35.2475 39.6161 34.8994C37.843 42.5029 32.1835 48.0804 25.4902 48.0804ZM39.8319 32.7886C36.1801 34.2188 32.8373 33.4949 29.8971 30.6373C27.5976 28.4028 26.4063 25.6568 26.3951 25.6304C26.297 25.3998 26.1108 25.2156 25.8762 25.1172C20.3979 22.8183 13.9531 25.51 10.9494 27.0898C11.2893 24.2733 12.1567 21.6417 13.5071 19.2416H37.4729C39.2539 22.3617 40.1959 25.9983 40.1959 29.8208C40.1959 30.8075 40.1304 31.7943 40.0081 32.739C39.949 32.7504 39.8899 32.7659 39.8319 32.7886Z" fill="#7F8DAA"/>
</svg>
