<svg width="50" height="50" viewBox="0 0 50 50" fill="none" xmlns="http://www.w3.org/2000/svg">
<path d="M46.3268 25.0995C44.9698 24.2174 43.3314 23.8472 41.7161 24.0576C40.1008 24.268 38.6187 25.0448 37.5452 26.2434L33.2418 31.0426C32.8653 30.0328 32.1814 29.16 31.2821 28.5417C30.3829 27.9235 29.3115 27.5894 28.2122 27.5846H26.9615C26.2862 27.5835 25.6263 27.3868 25.0653 27.0192C22.6412 25.4427 19.7339 24.7347 16.8367 25.015C13.9394 25.2954 11.2306 26.547 9.16959 28.5576L4.3955 33.2253C4.14227 33.4728 4 33.8086 4 34.1588C4 34.5089 4.14227 34.8447 4.3955 35.0923C4.64873 35.3399 4.99219 35.479 5.35032 35.479C5.70844 35.479 6.0519 35.3399 6.30514 35.0923L11.0792 30.4246C12.6961 28.8394 14.8256 27.8522 17.1042 27.6315C19.3829 27.4109 21.6691 27.9706 23.5726 29.215C24.5758 29.8694 25.7555 30.2172 26.9615 30.2143H28.2122C28.9255 30.2143 29.6096 30.4913 30.114 30.9845C30.6184 31.4776 30.9018 32.1465 30.9018 32.8439H21.4881C21.1314 32.8439 20.7894 32.9825 20.5372 33.2291C20.285 33.4756 20.1433 33.8101 20.1433 34.1588C20.1433 34.5075 20.285 34.8419 20.5372 35.0885C20.7894 35.3351 21.1314 35.4736 21.4881 35.4736H32.2466C32.4363 35.4699 32.6231 35.427 32.7946 35.3477C32.9661 35.2683 33.1185 35.1544 33.2418 35.0134L39.549 27.9659C40.0417 27.4198 40.6794 27.0177 41.3915 26.8042C42.1036 26.5907 42.8623 26.5741 43.5834 26.7562L34.1294 39.1552C33.7536 39.6451 33.2663 40.0427 32.7061 40.3166C32.1459 40.5904 31.5281 40.733 30.9018 40.733H19.686C18.8024 40.7315 17.9272 40.9002 17.1103 41.2296C16.2935 41.559 15.551 42.0426 14.9254 42.6527L13.8092 43.744C13.6832 43.8662 13.5831 44.0117 13.5148 44.1719C13.4466 44.3321 13.4114 44.504 13.4114 44.6775C13.4114 44.8511 13.4466 45.023 13.5148 45.1832C13.5831 45.3434 13.6832 45.4888 13.8092 45.6111C13.9342 45.7343 14.083 45.8321 14.2468 45.8989C14.4107 45.9656 14.5865 46 14.764 46C14.9416 46 15.1173 45.9656 15.2812 45.8989C15.4451 45.8321 15.5938 45.7343 15.7188 45.6111L16.835 44.5198C17.5909 43.7798 18.6164 43.3636 19.686 43.3627H30.9018C31.9457 43.3627 32.9752 43.1251 33.9089 42.6686C34.8426 42.2122 35.6547 41.5495 36.2811 40.733L46.7706 27.0586C46.973 26.7461 47.0451 26.3697 46.9724 26.0068C46.8807 25.6361 46.6504 25.3124 46.3268 25.0995Z" fill="#7F8DAA"/>
<path d="M33.2143 22H27.7857C27.4258 22 27.0806 21.857 26.8261 21.6025C26.5716 21.348 26.4286 21.0028 26.4286 20.6429V16.5714H22.3571C21.9972 16.5714 21.652 16.4284 21.3975 16.1739C21.143 15.9194 21 15.5742 21 15.2143V9.78571C21 9.42578 21.143 9.08058 21.3975 8.82607C21.652 8.57156 21.9972 8.42857 22.3571 8.42857H26.4286V4.35714C26.4286 3.99721 26.5716 3.65201 26.8261 3.3975C27.0806 3.14298 27.4258 3 27.7857 3H33.2143C33.5742 3 33.9194 3.14298 34.1739 3.3975C34.4284 3.65201 34.5714 3.99721 34.5714 4.35714V8.42857H38.6429C39.0028 8.42857 39.348 8.57156 39.6025 8.82607C39.857 9.08058 40 9.42578 40 9.78571V15.2143C40 15.5742 39.857 15.9194 39.6025 16.1739C39.348 16.4284 39.0028 16.5714 38.6429 16.5714H34.5714V20.6429C34.5714 21.0028 34.4284 21.348 34.1739 21.6025C33.9194 21.857 33.5742 22 33.2143 22ZM29.1429 19.2857H31.8571V15.2143C31.8571 14.8543 32.0001 14.5092 32.2546 14.2546C32.5092 14.0001 32.8543 13.8571 33.2143 13.8571H37.2857V11.1429H33.2143C32.8543 11.1429 32.5092 10.9999 32.2546 10.7454C32.0001 10.4908 31.8571 10.1457 31.8571 9.78571V5.71429H29.1429V9.78571C29.1429 10.1457 28.9999 10.4908 28.7454 10.7454C28.4908 10.9999 28.1457 11.1429 27.7857 11.1429H23.7143V13.8571H27.7857C28.1457 13.8571 28.4908 14.0001 28.7454 14.2546C28.9999 14.5092 29.1429 14.8543 29.1429 15.2143V19.2857Z" fill="#7F8DAA"/>
</svg>
