<svg width="50" height="50" viewBox="0 0 50 50" fill="none" xmlns="http://www.w3.org/2000/svg">
<g clip-path="url(#clip0_588_13922)">
<path d="M20.9396 14.194L20.9404 14.1938C22.5319 13.7878 23.4939 12.1663 23.086 10.5702L23.0859 10.5697C22.6799 8.97851 21.0582 8.01633 19.4632 8.42391L20.9396 14.194ZM20.9396 14.194C19.3457 14.6016 17.7238 13.6403 17.3177 12.0476L17.3175 12.0468M20.9396 14.194L17.3175 12.0468M17.3175 12.0468C16.9098 10.4522 17.8705 8.83133 19.4631 8.42395L17.3175 12.0468Z" stroke="#7F8DAA" stroke-width="2.5"/>
<path d="M25.2708 27.8604L24.9852 30.8527C25.4883 31.1879 25.9513 31.5644 26.362 31.9734C28.0524 33.6659 28.983 35.9148 28.9836 38.3043C28.983 40.6938 28.0524 42.9418 26.362 44.6352C24.6687 46.3248 22.4213 47.2562 20.0303 47.2576C17.6409 47.2562 15.392 46.3248 13.6995 44.6352C12.6297 43.5641 11.853 42.2398 11.4343 40.7854L9.90894 44.1499C11.998 47.7592 15.8699 49.9984 20.0303 49.9999C26.4781 49.9984 31.7259 44.7521 31.7266 38.3044C31.7259 33.9123 29.1988 29.8371 25.2708 27.8604Z" fill="#7F8DAA"/>
<path d="M20.5684 18.3848L20.5691 18.3849C21.6524 18.4837 22.4268 19.4156 22.3055 20.7566C22.3054 20.7575 22.3053 20.7584 22.3052 20.7593L21.2329 31.9932C21.0597 33.6152 20.6004 34.5458 19.9765 35.0996C19.3464 35.659 18.3339 36.0253 16.6373 36.0449H9.28296H8.48798L8.15089 36.7648L4.31163 44.965L4.30752 44.9738L4.30354 44.9827C4.07085 45.5005 3.46219 45.7324 2.9426 45.4987L2.94189 45.4984C2.42397 45.2658 2.19256 44.656 2.42538 44.1387L2.44434 44.0966L2.46013 44.0532L5.85604 34.722C6.21197 33.8795 6.53202 33.4385 6.86865 33.1793C7.18831 32.9331 7.66148 32.7453 8.5496 32.7102L8.57043 32.7094L8.59122 32.7079L15.8098 32.1811L16.8682 32.1039L16.9637 31.0469L17.4594 25.5624L17.7098 22.7926L15.4722 24.4441L13.17 26.1433L13.1695 26.1437C12.9544 26.3027 12.6955 26.388 12.427 26.388H6.73384C6.4769 26.388 6.26899 26.1794 6.26899 25.924V25.8204C6.26899 25.5806 6.45296 25.3791 6.69502 25.3587L12.221 24.8941L12.6712 24.8562L12.9931 24.5393L18.2735 19.3419L18.2887 19.3269L18.3034 19.3114C18.8557 18.7294 19.7996 18.3143 20.5684 18.3848Z" stroke="#7F8DAA" stroke-width="2.5"/>
<path d="M41.2283 7.11408L41.2276 7.11426C39.633 7.52193 38.0116 6.56078 37.6048 4.96762C37.1975 3.37251 38.1577 1.75163 39.751 1.3436C41.3462 0.936562 42.9679 1.89894 43.3738 3.49007L43.3739 3.49058C43.7818 5.08662 42.8198 6.70818 41.2283 7.11408Z" stroke="#7F8DAA" stroke-width="2.5"/>
<path d="M40.2565 12.1388L40.2565 12.1389L40.2654 12.1307C41.1632 11.3052 42.4038 11.0573 43.4456 11.3486C44.4399 11.6266 45.2587 12.3908 45.4354 13.7251C45.4355 13.7258 45.4355 13.7264 45.4356 13.7271L47.3474 28.6046L47.6656 47.749C47.6613 48.2656 47.2637 48.6961 46.7454 48.7394L46.7418 48.7397L46.6615 48.7467C46.6608 48.7467 46.6601 48.7468 46.6593 48.7468C46.1085 48.7908 45.6274 48.3828 45.5796 47.8365L45.579 47.829L45.5782 47.8216L44.2696 34.6893L41.8704 34.3363L36.4462 47.4761C36.4456 47.4775 36.4451 47.4788 36.4445 47.4802C36.2399 47.9577 35.7043 48.2003 35.2098 48.0378L35.2099 48.0377L35.1985 48.0341L35.1282 48.0118C35.1267 48.0113 35.1252 48.0108 35.1237 48.0103C34.6019 47.8363 34.3183 47.2749 34.4868 46.753L34.4875 46.7508L39.3158 31.6899L39.3237 31.6653L39.3306 31.6403C39.3658 31.5126 39.4533 31.2713 39.572 30.9438C39.6665 30.6834 39.7807 30.3684 39.904 30.0128C40.0299 29.65 40.1574 29.2639 40.2501 28.9247C40.2963 28.7557 40.3393 28.5787 40.3684 28.4104C40.3925 28.271 40.4283 28.0257 40.3951 27.7672C40.3951 27.7671 40.3951 27.767 40.3951 27.7668C40.395 27.7663 40.3949 27.7658 40.3949 27.7653L39.1886 18.3561L38.9428 16.4389L37.2952 17.4495L35.1387 18.7722L35.1157 18.7863L35.0933 18.8014C34.4181 19.2568 33.6634 19.5845 32.8685 19.7677L32.8434 19.7734L32.8187 19.7802L28.4435 20.9796C28.1892 21.0293 27.9367 20.8806 27.8577 20.6331L27.8391 20.5713L27.8391 20.5713L27.8357 20.5603C27.7549 20.3007 27.8917 20.0233 28.1473 19.9294L28.1473 19.9294L28.1564 19.926L33.8793 17.7733L34.1006 17.69L34.2763 17.5316L40.2565 12.1388Z" stroke="#7F8DAA" stroke-width="2.5"/>
</g>
<defs>
<clipPath id="clip0_588_13922">
<rect width="50" height="50" fill="white"/>
</clipPath>
</defs>
</svg>
