<svg width="50" height="50" viewBox="0 0 50 50" fill="none" xmlns="http://www.w3.org/2000/svg">
<path fill-rule="evenodd" clip-rule="evenodd" d="M23.6048 33.8614C21.8227 31.9103 19.089 29.1685 17.5819 29.5388C11.9526 30.9221 6.25 33.7429 6.25 37.9863V44.7918H43.75V37.9863C43.75 33.7429 38.0474 30.9221 32.4181 29.5388C30.9636 29.1814 28.2226 31.9426 26.4208 33.882C26.178 34.1434 25.9523 34.3898 25.749 34.6117C25.4416 34.9473 25.1856 35.2268 25 35.4165C24.8713 35.2761 24.7074 35.0916 24.5149 34.8752C24.2575 34.5854 23.9489 34.2382 23.6048 33.8614ZM32.1427 31.6172C32.0495 31.6556 31.9065 31.7262 31.7115 31.8479C31.1922 32.1717 30.5565 32.6959 29.864 33.3478C28.8985 34.2568 28.0693 35.1638 27.3921 35.9044C27.0523 36.2761 26.7508 36.6059 26.4896 36.8731L24.9508 38.4467L23.464 36.824C23.3094 36.6554 23.125 36.4479 22.9158 36.2128C22.2139 35.4233 21.2336 34.3209 20.1711 33.3205C19.4853 32.6746 18.8539 32.1588 18.3366 31.8424C18.1079 31.7026 17.962 31.6386 17.8859 31.6099C15.266 32.2699 12.7648 33.2301 10.9544 34.4276C9.05481 35.6841 8.33333 36.9016 8.33333 37.9863V42.7085H41.6667V37.9863C41.6667 36.9016 40.9452 35.6841 39.0456 34.4276C37.2419 33.2344 34.7523 32.2769 32.1427 31.6172Z" fill="#7F8DAA"/>
<path d="M31.25 36.458H37.5V38.5413H31.25V36.458Z" fill="#7F8DAA"/>
<path d="M33.3334 40.625V34.375H35.4167V40.625H33.3334Z" fill="#7F8DAA"/>
<path fill-rule="evenodd" clip-rule="evenodd" d="M25 5.20833C22.6673 5.20833 19.7615 5.97756 17.8491 6.584C17.3701 6.73585 17.0891 7.26836 17.2796 7.80813L19.3877 13.7812C23.1244 12.5938 26.8756 12.5938 30.6123 13.7812L32.7204 7.80813C32.9109 7.26836 32.6299 6.73585 32.1509 6.584C30.2386 5.97756 27.3327 5.20833 25 5.20833ZM17.2193 4.59811C19.1567 3.98379 22.324 3.125 25 3.125C27.6761 3.125 30.8433 3.98379 32.7806 4.59811C34.4476 5.12668 35.2438 6.9185 34.685 8.5015L32.2323 15.4508C32.1392 15.7147 31.9439 15.93 31.6902 16.0482C31.4367 16.1665 31.1463 16.1777 30.8843 16.0795C26.9534 14.6054 23.0466 14.6054 19.1157 16.0795C18.8538 16.1777 18.5633 16.1665 18.3097 16.0482C18.0562 15.93 17.8608 15.7147 17.7677 15.4508L15.315 8.5015C14.7563 6.91849 15.5524 5.12668 17.2193 4.59811Z" fill="#7F8DAA"/>
<path d="M21.875 8.33301H28.125V10.4163H21.875V8.33301Z" fill="#7F8DAA"/>
<path d="M23.9584 12.5V6.25H26.0417V12.5H23.9584Z" fill="#7F8DAA"/>
<path fill-rule="evenodd" clip-rule="evenodd" d="M19.5309 14.9685C18.3959 16.2545 17.7083 17.9413 17.7083 19.7913C17.7083 23.8184 20.9729 27.083 25 27.083C29.0271 27.083 32.2917 23.8184 32.2917 19.7913C32.2917 17.9413 31.6041 16.2545 30.4691 14.9685L32.0309 13.5898C33.4891 15.2419 34.375 17.4144 34.375 19.7913C34.375 24.969 30.1777 29.1663 25 29.1663C19.8223 29.1663 15.625 24.969 15.625 19.7913C15.625 17.4144 16.5109 15.2419 17.9691 13.5898L19.5309 14.9685Z" fill="#7F8DAA"/>
</svg>
