<svg width="50" height="50" viewBox="0 0 50 50" fill="none" xmlns="http://www.w3.org/2000/svg">
<g clip-path="url(#clip0_588_13958)">
<path d="M44.0725 12.38L36.5418 12.3798C39.7021 12.0973 42.1883 9.43574 42.1883 6.2031C42.1883 2.78264 39.4056 0 35.9853 0C32.5649 0 29.7823 2.78264 29.7823 6.203C29.7823 9.43564 32.2682 12.0972 35.4286 12.3797L27.8979 12.3796C26.4233 12.3796 25.2236 13.5793 25.2235 15.054L25.2236 27.8413C25.2236 29.3157 26.4233 30.5156 27.898 30.5157H28.0054V46.4535C28.0054 48.409 29.5963 49.9998 31.5517 49.9998H32.3283C34.1585 49.9998 35.6126 48.6101 35.8641 46.6201C35.8973 46.3575 35.9379 46.0457 35.9841 45.6964C36.0316 46.0509 36.0732 46.3647 36.1069 46.6243C36.3647 48.6117 37.8184 49.9998 39.6422 49.9998H40.4187C42.3743 49.9998 43.9652 48.409 43.9652 46.4535V30.5158H44.0728C45.5475 30.5158 46.7471 29.3161 46.7471 27.8415V15.054C46.7466 13.5795 45.5468 12.38 44.0725 12.38ZM32.4377 6.203C32.4377 4.24693 34.0292 2.65548 35.9853 2.65548C37.9413 2.65548 39.5327 4.24693 39.5327 6.203C39.5327 8.15907 37.9412 9.75052 35.9853 9.75052C34.0292 9.75062 32.4377 8.15917 32.4377 6.203ZM44.0915 27.8416C44.0915 27.852 44.0831 27.8604 44.0725 27.8604H42.6374C41.904 27.8604 41.3096 28.4548 41.3096 29.1881V46.4538C41.3096 46.945 40.9099 47.3446 40.4186 47.3446H39.6421C39.0389 47.3446 38.7914 46.6773 38.7402 46.2831C38.4073 43.7161 37.3111 35.904 37.2999 35.8254C37.208 35.1701 36.6476 34.6825 35.986 34.6822C35.9857 34.6822 35.9855 34.6822 35.9852 34.6822C35.3238 34.6822 34.7633 35.169 34.6705 35.8238C34.6596 35.9014 33.567 43.6171 33.2295 46.2873C33.1798 46.68 32.9341 47.3447 32.3282 47.3447H31.5516C31.0604 47.3447 30.6608 46.9451 30.6608 46.4539V29.188C30.6608 28.4547 30.0664 27.8603 29.3331 27.8603H27.8981C27.8876 27.8603 27.879 27.8518 27.879 27.8414V15.0542C27.879 15.0437 27.8875 15.0352 27.8979 15.0352L33.5401 15.0353L34.5782 16.336L33.2726 24.0988C33.2066 24.4913 33.3201 24.8927 33.582 25.1924L34.9853 26.799C35.2374 27.0876 35.602 27.2533 35.9852 27.2533C36.3684 27.2533 36.733 27.0877 36.9852 26.7991L38.3885 25.1926C38.6504 24.8928 38.7639 24.4915 38.6978 24.0989L37.3923 16.3358L38.4304 15.0352L44.0724 15.0353C44.083 15.0353 44.0914 15.044 44.0914 15.0543V27.8416H44.0915Z" fill="#7F8DAA"/>
<path d="M27.852 5.88826C27.6379 5.41109 27.1636 5.10397 26.6406 5.10397H23.9541C23.7292 3.46227 22.3174 2.19336 20.6149 2.19336H6.62335C4.76492 2.19336 3.25293 3.70535 3.25293 5.56378V17.1041C3.25293 18.9625 4.76492 20.4745 6.62335 20.4745H20.6148C22.4732 20.4745 23.9852 18.9625 23.9852 17.1041V11.4112L27.6322 7.31466C27.98 6.924 28.066 6.36553 27.852 5.88826ZM21.6657 10.0229C21.4493 10.2661 21.3297 10.5803 21.3297 10.9059V17.1042C21.3297 17.4983 21.009 17.8191 20.6148 17.8191H6.62335C6.22911 17.8191 5.90841 17.4983 5.90841 17.1042V5.56388C5.90841 5.16975 6.22911 4.84894 6.62335 4.84894H20.6148C21.009 4.84894 21.3297 5.16975 21.3297 5.56388V6.43182C21.3297 7.16514 21.9241 7.75956 22.6575 7.75956H23.6807L21.6657 10.0229Z" fill="#7F8DAA"/>
</g>
<defs>
<clipPath id="clip0_588_13958">
<rect width="50" height="50" fill="white"/>
</clipPath>
</defs>
</svg>
