<svg width="42" height="42" viewBox="0 0 42 42" fill="none" xmlns="http://www.w3.org/2000/svg">
<circle opacity="0.1" cx="21" cy="21" r="21" fill="#00A99D"/>
<path d="M22.4799 19.4053L20.7374 21.9678L20.2249 21.4553C19.8149 21.0453 19.1999 21.0453 18.7899 21.4553C18.3799 21.8653 18.3799 22.4803 18.7899 22.8903L20.2249 24.3253C20.4299 24.5303 20.6349 24.6328 20.9424 24.6328H21.0449C21.3524 24.6328 21.6599 24.4278 21.7624 24.2228L24.2224 20.5328C24.5299 20.0203 24.4274 19.4053 23.9149 19.0978C23.4024 18.7903 22.7874 18.8928 22.4799 19.4053Z" fill="#15D199"/>
<path d="M30.27 18.38C29.86 17.97 29.655 17.4575 29.655 16.945C29.655 14.69 27.81 12.845 25.555 12.845C25.0425 12.845 24.53 12.64 24.12 12.23C22.48 10.59 19.9175 10.59 18.2775 12.23C17.97 12.64 17.4575 12.845 16.945 12.845C14.69 12.845 12.845 14.69 12.845 16.945C12.845 17.4575 12.64 17.97 12.23 18.38C10.59 20.02 10.59 22.5825 12.23 24.2225C12.64 24.6325 12.845 25.145 12.845 25.6575C12.845 27.9125 14.69 29.7575 16.945 29.7575C17.4575 29.7575 17.97 29.9625 18.38 30.3725C19.2 31.09 20.225 31.5 21.25 31.5C22.275 31.5 23.4025 31.09 24.12 30.27C24.53 29.86 25.0425 29.655 25.555 29.655C27.81 29.655 29.655 27.81 29.655 25.555C29.655 25.0425 29.86 24.53 30.1675 24.12C31.91 22.5825 31.91 19.9175 30.27 18.38ZM28.835 22.685C28.015 23.505 27.605 24.53 27.605 25.555C27.605 26.6825 26.6825 27.605 25.555 27.605C24.4275 27.605 23.4025 28.015 22.685 28.835C21.865 29.655 20.5325 29.655 19.815 28.835C18.995 28.015 17.97 27.605 16.945 27.605C15.8175 27.605 14.895 26.6825 14.895 25.555C14.895 24.4275 14.485 23.4025 13.665 22.685C12.845 21.865 12.845 20.635 13.665 19.815C14.485 18.995 14.895 17.97 14.895 16.945C14.895 15.8175 15.8175 14.895 16.945 14.895C18.0725 14.895 19.0975 14.485 19.815 13.665C20.225 13.255 20.7375 13.05 21.25 13.05C21.7625 13.05 22.275 13.255 22.685 13.665C23.505 14.485 24.53 14.895 25.555 14.895C26.6825 14.895 27.605 15.8175 27.605 16.945C27.605 18.0725 28.015 19.0975 28.835 19.815C29.655 20.635 29.655 21.865 28.835 22.685Z" fill="#15D199"/>
</svg>
